<svg width="54" height="54" viewBox="0 0 54 54" fill="none" xmlns="http://www.w3.org/2000/svg">
<path d="M47 27V52H7V27" stroke="#666666" stroke-width="4" stroke-linecap="round" stroke-linejoin="round"/>
<path d="M52 14.5H2V27H52V14.5Z" stroke="#666666" stroke-width="4" stroke-linecap="round" stroke-linejoin="round"/>
<path d="M27 52V14.5" stroke="#666666" stroke-width="4" stroke-linecap="round" stroke-linejoin="round"/>
<path d="M27 14.5H15.75C14.0924 14.5 12.5027 13.8415 11.3306 12.6694C10.1585 11.4973 9.5 9.9076 9.5 8.25C9.5 6.5924 10.1585 5.00269 11.3306 3.83058C12.5027 2.65848 14.0924 2 15.75 2C24.5 2 27 14.5 27 14.5Z" stroke="#666666" stroke-width="4" stroke-linecap="round" stroke-linejoin="round"/>
<path d="M27 14.5H38.25C39.9076 14.5 41.4973 13.8415 42.6694 12.6694C43.8415 11.4973 44.5 9.9076 44.5 8.25C44.5 6.5924 43.8415 5.00269 42.6694 3.83058C41.4973 2.65848 39.9076 2 38.25 2C29.5 2 27 14.5 27 14.5Z" stroke="#666666" stroke-width="4" stroke-linecap="round" stroke-linejoin="round"/>
</svg>
