<svg width="57" height="54" viewBox="0 0 57 54" fill="none" xmlns="http://www.w3.org/2000/svg">
<path d="M21.0476 52C22.3626 52 23.4286 50.934 23.4286 49.6191C23.4286 48.3041 22.3626 47.2381 21.0476 47.2381C19.7326 47.2381 18.6667 48.3041 18.6667 49.6191C18.6667 50.934 19.7326 52 21.0476 52Z" stroke="#666666" stroke-width="4" stroke-linecap="round" stroke-linejoin="round"/>
<path d="M47.2381 52C48.5531 52 49.6191 50.934 49.6191 49.6191C49.6191 48.3041 48.5531 47.2381 47.2381 47.2381C45.9231 47.2381 44.8571 48.3041 44.8571 49.6191C44.8571 50.934 45.9231 52 47.2381 52Z" stroke="#666666" stroke-width="4" stroke-linecap="round" stroke-linejoin="round"/>
<path d="M2 2H11.5238L17.9048 33.881C18.1225 34.9771 18.7188 35.9618 19.5894 36.6626C20.46 37.3634 21.5493 37.7357 22.6667 37.7143H45.8095C46.9269 37.7357 48.0162 37.3634 48.8868 36.6626C49.7574 35.9618 50.3537 34.9771 50.5714 33.881L54.381 13.9048H13.9048" stroke="#666666" stroke-width="4" stroke-linecap="round" stroke-linejoin="round"/>
</svg>
