<svg width="171" height="68" viewBox="0 0 171 68" fill="none" xmlns="http://www.w3.org/2000/svg">
<path d="M86.0755 66.5513C85.2499 67.3494 83.8555 67.9161 82.0734 67.917C80.2657 67.918 78.9225 67.4042 78.096 66.5806C77.1917 65.6806 76.8817 64.3942 76.8807 62.5157L80.5482 62.5138C80.5482 63.2599 80.6004 63.8002 80.9359 64.1865C81.1426 64.4178 81.5047 64.6237 82.0725 64.6237C82.6403 64.6237 83.0024 64.4688 83.2346 64.16C83.4925 63.8512 83.5958 63.3619 83.5958 62.6158C83.5948 60.8658 83.3105 60.5579 81.9938 60.0177L79.6695 59.0666C77.8097 58.2959 77.0343 57.3184 77.0334 54.4624C77.0324 52.7643 77.5746 51.3486 78.6846 50.3966C79.5624 49.6505 80.6724 49.2378 82.0668 49.2368C83.6934 49.2359 84.8821 49.6477 85.6831 50.3928C86.6907 51.3184 87.105 52.7851 87.105 54.6372L83.4375 54.639C83.4375 53.9959 83.4365 53.4037 83.1266 52.9929C82.9199 52.7095 82.6099 52.5301 82.0677 52.5301C81.5511 52.5301 81.2156 52.736 81.0089 53.0193C80.7767 53.3282 80.6989 53.7144 80.6999 54.3321C80.7008 55.49 80.9075 55.8243 81.9663 56.2616L84.265 57.1872C86.5893 58.1127 87.2614 59.1667 87.2633 62.4864C87.2623 64.3376 87.0301 65.6248 86.0755 66.5513Z" fill="#333333"/>
<path d="M97.3538 52.6773L97.3605 67.7034L93.694 67.7053L93.6873 52.6792L90.5876 52.6811L90.5858 49.3878L100.451 49.3831L100.453 52.6763L97.3538 52.6773Z" fill="#333333"/>
<path d="M112.829 66.0761C111.977 67.08 110.841 67.9036 108.775 67.9045C106.71 67.9055 105.624 67.0829 104.771 66.0799C103.298 64.3307 103.401 61.012 103.4 58.5413C103.399 56.0716 103.294 52.7518 104.765 51.0018C105.616 49.9978 106.7 49.1743 108.767 49.1733C110.832 49.1724 111.97 49.995 112.822 50.998C114.295 52.7471 114.193 56.0659 114.195 58.5366C114.195 61.0063 114.3 64.3251 112.829 66.0761ZM110.033 53.1863C109.827 52.7745 109.439 52.4657 108.768 52.4666C108.097 52.4666 107.761 52.7755 107.554 53.1872C107.116 54.0363 107.065 56.3266 107.066 58.5394C107.067 60.7522 107.12 63.0416 107.559 63.8906C107.766 64.3024 108.101 64.6103 108.773 64.6103C109.445 64.6103 109.832 64.3015 110.039 63.8897C110.478 63.0406 110.528 60.7504 110.527 58.5375C110.525 56.3247 110.473 54.0353 110.033 53.1863Z" fill="#333333"/>
<path d="M125.56 67.6913L123.31 60.5654L122.096 60.5664L122.1 67.6932L118.433 67.695L118.424 49.3756L123.666 49.3728C127.669 49.3709 128.78 51.4544 128.782 54.9535C128.783 56.9095 128.474 58.6586 126.693 59.7664L129.382 67.6903L125.56 67.6913ZM123.642 52.6651L122.093 52.6661L122.094 57.2721L123.644 57.2712C125.039 57.2703 125.115 56.0094 125.115 54.9545C125.115 53.9005 125.037 52.6651 123.642 52.6651Z" fill="#333333"/>
<path d="M133.385 67.6874L133.377 49.368L141.847 49.3643L141.849 52.6575L137.046 52.6594L137.048 56.8018L141.18 56.7999L141.182 60.0931L137.05 60.095L137.052 64.3923L141.855 64.3904L141.857 67.6837L133.385 67.6874Z" fill="#333333"/>
<path d="M166.029 42.4092L155.668 37.6568C155.705 37.5302 155.737 37.4009 155.763 37.2696L170.718 36.7209L155.777 35.6857C155.741 35.4799 155.69 35.2796 155.626 35.0851L165.738 30.0389L155.248 34.2521C155.154 34.0925 155.05 33.9395 154.936 33.7931L164.969 22.8375L154.071 32.9516C153.557 32.5747 152.956 32.3084 152.304 32.1875L151.37 11.8678L150.647 32.1979C150.449 32.2376 150.255 32.2914 150.068 32.3566L146.401 25.3091L149.302 32.7117C149.214 32.7636 149.128 32.8175 149.045 32.8751L137.691 22.8404L147.91 34.0131C147.574 34.508 147.338 35.0756 147.23 35.6876C148.401 35.4893 149.59 35.2891 150.765 35.0992C150.983 35.0643 151.201 35.0445 151.431 35.0227C151.541 35.0124 151.653 35.002 151.773 34.9897L152.055 34.9595L152.086 35.2409L152.271 36.9834L152.353 37.7437L152.379 37.9949L152.132 38.0497C151.576 38.1734 151.027 38.2952 150.482 38.4171C149.629 38.6069 148.81 38.7882 147.992 38.9724C148.009 38.9951 148.025 39.0187 148.042 39.0414L141.174 46.6923L148.832 39.8404C149.358 40.2502 149.98 40.5421 150.66 40.6762L151.473 61.0035L152.317 40.6819C152.475 40.6516 152.632 40.6139 152.783 40.5676L156.259 47.6396L153.558 40.2455C153.684 40.1775 153.807 40.1039 153.926 40.0245L164.939 50.2189L155.064 38.9091C155.155 38.7788 155.24 38.6447 155.317 38.504L166.029 42.4092Z" fill="#19449F"/>
<path d="M151.666 35.2598C151.3 35.2985 150.984 35.3174 150.673 35.3674C145.672 36.173 140.691 37.1241 135.668 37.7588C127.356 38.809 118.992 39.2604 110.619 39.4852C103.544 39.6751 96.4667 39.8044 89.3895 39.9225C82.7143 40.0339 76.0391 40.1019 69.3629 40.1633C69.0387 40.1662 68.633 40.0075 68.3998 39.7846C67.704 39.1207 66.9002 38.7665 66.0006 38.8203L65.0129 47.36C65.3086 47.3912 65.6053 47.4176 65.902 47.4318C67.0651 47.4894 68.1751 47.2014 69.0245 46.255C69.2709 45.9811 69.6946 45.729 70.0501 45.7091C76.3737 45.3663 82.701 45.0792 89.0246 44.742C97.5606 44.2868 106.102 43.9128 114.627 43.2951C125.453 42.5103 136.236 41.3061 146.846 38.8997C148.518 38.52 150.193 38.1526 151.932 37.7644C151.839 36.8852 151.753 36.0786 151.666 35.2598Z" fill="#333333"/>
<path d="M59.606 39.7914C54.8114 38.6477 50.0803 39.0255 45.4479 40.6773C44.1521 41.1391 42.9975 41.2364 41.6448 40.9786C39.7386 40.6159 37.6977 40.0917 36.0796 41.7908C34.8776 41.0815 34.1335 40.9606 32.8264 41.3951C31.85 41.719 30.9068 42.1449 29.9504 42.5293C29.4755 42.7211 29.0224 43.0006 28.5304 43.1083C23.224 44.269 17.8948 45.3362 12.6054 46.5668C8.7834 47.4565 5.45526 49.3699 2.5916 52.0474C1.53657 53.0344 0.673021 54.179 0 55.7298C3.51488 53.7181 6.98046 53.7521 10.5437 54.7759C11.1029 54.9365 11.7845 54.9148 12.3542 54.7665C17.8606 53.3394 23.3538 51.8623 28.8574 50.4249C29.1901 50.338 29.5892 50.4362 29.9447 50.508C31.0405 50.7309 32.1211 51.0378 33.2235 51.2097C34.5952 51.4241 35.9393 51.3731 36.9792 50.1623C38.1631 50.9991 39.422 50.9462 40.6988 50.5004C41.7273 50.1406 42.7321 49.7118 43.771 49.3869C44.262 49.2339 44.8241 49.1367 45.3246 49.2103C50.6387 49.9904 55.7527 49.453 60.624 47.1155L59.606 39.7914Z" fill="#333333"/>
<path d="M21.1878 30.8116L20.8314 5.52406C19.7802 5.89617 18.746 6.6385 17.7289 7.75389L19.2038 0.254056C20.1868 0.355111 20.8143 0.491111 21.0855 0.659222C21.2201 0.727222 22.1357 0.760278 23.8316 0.760278C28.6802 0.760278 33.2415 0.507167 37.5138 0L39.3954 8.05706C38.8883 7.17872 38.1631 6.44394 37.2171 5.85272C36.2711 5.26244 35.2919 4.98289 34.2785 5.01689L26.4772 5.168C26.4772 5.33706 26.4772 5.48817 26.4772 5.62133V15.861H32.8861C33.7676 15.7259 34.5648 14.7636 35.2767 12.9729L35.1241 22.5505C34.5572 20.6928 33.5581 19.7634 32.1268 19.7634H26.681V31.0637L34.2804 31.2167C35.2928 31.2507 36.273 30.9721 37.219 30.3809C38.165 29.7906 38.8902 29.0558 39.3973 28.1766L37.5157 36.2336C33.2434 35.7274 28.6821 35.4733 23.8335 35.4733C22.1376 35.4733 21.222 35.5073 21.0873 35.5744C20.8153 35.7434 20.1887 35.8785 19.2057 35.9796L17.7308 28.4797C18.8815 29.7302 20.0342 30.5074 21.1878 30.8116Z" fill="#19449F"/>
<path d="M57.0456 32.4331C55.418 32.3661 54.2303 32.3491 53.4852 32.3821C52.7733 32.4161 51.9932 32.4331 51.1458 32.4331C51.7221 32.163 52.3155 31.7749 52.9259 31.2686C52.9591 31.2016 52.8406 30.9315 52.5695 30.4583L49.3675 24.887L45.5436 31.466C45.2763 31.9524 45.1606 32.2291 45.1947 32.299C45.2279 32.5068 45.8213 32.9233 46.9749 33.5476C46.1275 33.5476 45.3474 33.5476 44.6355 33.5476C43.8895 33.5145 42.7027 33.5145 41.0751 33.5476C40.2608 33.5476 38.7186 33.5476 36.4464 33.5476C39.1252 32.9394 40.7699 32.163 41.3803 31.2167C43.3131 28.1765 45.3303 24.9333 47.4328 21.487L43.3131 14.2403C42.9065 13.531 42.3121 13.0748 41.5329 12.8718L40.7699 12.1115C40.3291 11.6733 39.6684 11.2842 38.7859 10.946C39.5319 10.98 40.9045 11.2842 42.9055 11.8584C44.8042 12.4335 45.9578 12.7037 46.3645 12.6697C47.0081 13.8861 48.0091 15.7438 49.3656 18.2438C50.1448 16.8592 51.3827 14.6964 53.0786 11.7573C53.4852 11.7573 56.0114 11.6733 60.6571 11.5042L57.8674 12.5705C56.6162 13.0446 55.4161 14.2979 54.2672 16.3294L51.2661 21.4691C52.8302 24.0408 54.6502 26.9346 56.7252 30.1485C57.3366 31.0967 58.9869 31.875 61.6743 32.4832C59.4012 32.4832 57.8589 32.4671 57.0456 32.4331Z" fill="#19449F"/>
<path d="M59.1301 24.8822L61.6733 25.9967L59.5367 8.20996H65.8432V10.946L69.7088 8.91924L74.8968 16.4701L73.7773 27.9224L68.7931 30.8615L65.8944 28.7006L65.9456 36.1315L64.8327 35.359L64.6289 34.9538L63.7379 47.2542L62.9445 53.2345L59.1301 24.8822ZM69.9136 26.4028L69.3031 11.5552L65.8442 13.1768L65.8953 25.8966L68.3874 27.7212L69.9136 26.4028Z" fill="#19449F"/>
<path d="M88.9866 18.8217L87.7155 21.4567C86.3931 20.6794 84.884 20.2913 83.1891 20.2913C82.172 20.2913 81.5445 20.4263 81.3075 20.6964L81.664 29.0076C81.9351 29.5827 82.5114 30.1059 83.393 30.5782C84.0707 29.6998 84.5286 28.6014 84.7665 27.2839C84.7997 27.1489 84.885 26.2876 85.0205 24.6999L87.2586 27.538L84.156 31.9467L81.5606 31.9977L76.4239 27.538C76.1518 26.2545 76.0172 24.7849 76.0172 23.1293C76.0172 20.7654 76.2542 18.2815 76.7291 15.6805L82.4261 11.2208C82.8327 11.0858 83.1711 11.1028 83.4432 11.2718L87.5628 13.9578L88.9866 18.8217ZM85.3239 19.1258L82.7304 13.2986C82.4924 12.9945 82.3398 12.8424 82.2725 12.8424C82.137 12.8424 82.0005 12.9614 81.8659 13.1975L81.2554 18.9747C83.1541 18.8727 84.5105 18.9237 85.3239 19.1258Z" fill="#19449F"/>
<path d="M98.497 18.9737C99.1406 17.8592 99.4127 16.8449 99.3112 15.9335C98.8705 15.3593 97.8363 14.3289 96.2087 12.8424C96.0732 12.8424 95.9366 12.9614 95.802 13.1975L95.0902 18.9746L95.5982 29.0084C95.8693 29.5836 96.4457 30.1068 97.3272 30.579L98.9036 29.0084C99.6487 28.2661 100.073 27.6239 100.175 27.0827C100.175 27.0496 100.192 26.8636 100.226 26.5255L100.43 24.4987L102.668 27.3367L98.0903 31.9485L95.4968 31.9995L90.36 27.5398C90.088 26.2563 89.9534 24.7867 89.9534 23.1311C89.9534 20.7672 90.1904 18.2833 90.6653 15.6823L96.3623 11.2226C96.5661 11.1556 96.9215 11.1216 97.4306 11.1216C97.9055 11.1216 98.2268 11.1726 98.3965 11.2736L102.516 13.9596L103.177 15.8344L98.497 18.9737Z" fill="#19449F"/>
<path d="M113.449 10.085H110.601L110.143 31.6221C110.075 31.7571 110.042 31.8931 110.042 32.0272C110.042 32.6354 110.856 33.6318 112.484 35.0173L108.313 33.4968C106.685 32.8886 105.821 32.1623 105.719 31.3179L105.973 9.88189H101.701C104.617 8.26028 107.533 5.45623 110.449 1.46973L110.348 7.90517H112.993L113.449 10.085Z" fill="#19449F"/>
<path d="M127.741 27.6391C127.911 28.4835 126.978 29.4298 124.944 30.4772C123.248 31.3565 121.859 31.8627 120.773 31.9978L119.857 31.8457C116.433 29.2107 114.618 27.522 114.415 26.7778C114.347 25.1902 114.5 21.2717 114.873 15.0214C117.213 13.3327 119.637 12.0492 122.147 11.1699L125.758 13.6529L126.165 14.3121C126.91 15.0214 127.352 16.5419 127.487 18.8728C127.555 20.0553 127.64 22.9774 127.741 27.6391ZM122.859 28.8556C122.859 20.0383 122.535 14.8183 121.892 13.1967L120.264 14.16C119.687 14.5992 119.314 15.0554 119.146 15.5285L119.4 28.8565C119.637 29.5328 120.094 30.022 120.773 30.3261C121.79 30.021 122.485 29.5318 122.859 28.8556Z" fill="#19449F"/>
</svg>
